<?xml version="1.0" encoding="utf-8"?>
<!-- Generator: Adobe Illustrator 27.1.0, SVG Export Plug-In . SVG Version: 6.00 Build 0)  -->
<svg version="1.1" id="Capa_1" xmlns:serif="http://www.serif.com/"
	 xmlns="http://www.w3.org/2000/svg" xmlns:xlink="http://www.w3.org/1999/xlink" x="0px" y="0px" viewBox="0 0 32 40"
	 style="enable-background:new 0 0 32 40;" xml:space="preserve">
<style type="text/css">
	.st0{fill-rule:evenodd;clip-rule:evenodd;}
</style>
<path class="st0" d="M18,20.5h-4V30c0,0.3,0.2,0.5,0.5,0.5h3c0.3,0,0.5-0.2,0.5-0.5V20.5z M9.5,14C9.2,14,9,14.2,9,14.5v5
	C9,19.8,9.2,20,9.5,20h16.1c0.1,0,0.2,0,0.3-0.1l2.9-2.5C29,17.3,29,17.1,29,17c0-0.1-0.1-0.3-0.2-0.4l-2.9-2.5
	C25.8,14,25.7,14,25.6,14C25.6,14,9.5,14,9.5,14z M18,13.5h-4V12h4V13.5z M23,6c0-0.3-0.2-0.5-0.5-0.5H6.4c-0.1,0-0.2,0-0.3,0.1
	L3.1,8.1C3,8.2,3,8.4,3,8.5C3,8.6,3,8.8,3.1,8.9l2.9,2.5c0.1,0.1,0.2,0.1,0.3,0.1h16.1c0.3,0,0.5-0.2,0.5-0.5C23,11,23,6,23,6z
	 M14,5h4V4c0-0.1,0-0.2-0.1-0.3l-1.5-2c-0.1-0.1-0.2-0.2-0.4-0.2s-0.3,0.1-0.4,0.2l-1.5,2C14,3.8,14,3.9,14,4V5z"/>
</svg>
