<?xml version="1.0" encoding="utf-8"?>
<!-- Generator: Adobe Illustrator 27.1.0, SVG Export Plug-In . SVG Version: 6.00 Build 0)  -->
<svg version="1.1" id="Capa_1" xmlns="http://www.w3.org/2000/svg" xmlns:xlink="http://www.w3.org/1999/xlink" x="0px" y="0px"
	 viewBox="0 0 100 125" style="enable-background:new 0 0 100 125;" xml:space="preserve">
<g>
	<path d="M88.4,21c-0.2-0.6-0.8-0.9-1.4-0.9H76.9c-0.4,0-0.7,0.1-1,0.4L39.1,53.2c-0.5,0.4-0.6,1.1-0.4,1.7s0.8,1,1.4,1H54h28.7
		c0.8,0,1.5-0.7,1.5-1.5s-0.7-1.5-1.5-1.5h-25l30.4-30.2C88.5,22.2,88.7,21.6,88.4,21z"/>
	<path d="M90.6,55.8c-0.8,0-1.5-0.7-1.5-1.5s0.7-1.5,1.5-1.5H95c-0.7-7.1-6.4-13.3-15.2-17.7L65,49.8h17.8c2.5,0,4.5,2,4.5,4.5
		s-2,4.5-4.5,4.5H40.1c-1.9,0-3.6-1.2-4.2-2.9c-0.7-1.7-0.2-3.7,1.2-5l24.1-21.5c-3.1-0.5-6.4-0.7-9.7-0.8v4.4
		c0,0.8-0.7,1.5-1.5,1.5s-1.5-0.7-1.5-1.5v-4.4C25.2,29.1,6.3,39.6,5,52.8h4.4c0.8,0,1.5,0.7,1.5,1.5s-0.7,1.5-1.5,1.5H5
		C6.3,69,25.2,79.5,48.5,79.9v-4.4c0-0.8,0.7-1.5,1.5-1.5s1.5,0.7,1.5,1.5v4.4C74.8,79.5,93.7,69,95,55.8
		C95,55.8,90.6,55.8,90.6,55.8z"/>
</g>
</svg>
