<?xml version="1.0" encoding="UTF-8"?><svg id="Capa_1" xmlns="http://www.w3.org/2000/svg" viewBox="0 0 274.96 294.33"><defs><style>.cls-1{fill:#020202;}.cls-2{fill:#131313;}.cls-3{fill:#121212;}.cls-4{fill:#010101;}</style></defs><path d="m179.02,176.59c-3.17,7.04-9.98,9.94-15.84,13.93-2.64,1.42-5.29,2.84-7.93,4.26-.99.24-1.98.49-2.97.73l-.72-2.85c-1.47,3.59-3.98,4.92-7.31,5.13-11.76,2.98-23.42,3.42-34.89-1.33-4.42-2.84-11.36-7.93-13.98-14.22,2.52,7.93,7.84,12.03,13.88,15.49-.26,2.62-.51,5.24-.77,7.86v1c1.03,2.97.75,5.84-.5,8.7-.44,1-.53,2.15-.78,3.24-1.79,7.09-6.4,12.47-10.92,17.89-1.74,2.03-3.48,4.07-5.51,6.44,4.75,1.35,8.71,2.47,12.67,3.59q-2.58,3.23,3.1,7.01c-.74,2.3-1.48,4.59-2.22,6.88-7.57,1.14-13.13.31-20.66.02-6.24-.24-14.34,1.8-18.9-3.75-10.18-12.4,17.93-29.85-4.23-34.11-15.37-9.04-22.73-10.83-29.77-27.78-4.16,1.14-6.06,2.91-8.46,7.8-7.2,4.81,10.25,18.01,13.76,20.14,8.71,5.29,18.6,13.5,21.86,23.71,2.54,7.95,1.6,21.93-3.15,28.87-5.53,8.08-18.06,9.18-21.21,19.07-.38-.18-.77-.35-1.15-.53v-8.23c-1.63-1.08-2.29-3.73-4.98-3.12-6.22.27-7.61,5.82-10.49,9.74-6.75-7.05.61-14.43,5.7-19.2,7.18-6.73,11.29-9.29,7.09-19.75-2.94,2.58-5.67,4.98-8.7,7.64-.17-3.78.91-10.91-1.23-14.25-1.45-2.27-4.44-2.36-6.31-4.47-5.72-6.45-6.68-18.75-8.85-26.63-.8,2.29-1.22,3.47-1.78,5.08-3.24-6.07-1.51-12.52-2.88-17.79,1.04-1.64,1.85-2.92,2.65-4.19,5.8-6.54,12.48-11.34,19.44-16.59-.65-.25-1.47-.57-2.5-.98,2.95-3.13,6.59-1.83,9.23-4.11,2.89-2.49,4.82-6.97,6.84-10.23,1.63-2.29,3.25-4.59,4.88-6.88,5.19-5.04,10.07-10.75,16.65-14.01,5.38-2.66,10.7-3.36,17.22-5.26,5.61-1.26,6.68-1.16,10.03-1.74,10.67-.56,20.51-5.73,29.82-10.51-7.75-3.2-15.98-5.24-23.27-9.83,1.9-.68,2.24-.1,4.04-1.44,4.99-1.55,6.23,1.62,9.5-.5-1.1-1.72-2.06-3.23-3.02-4.73.85-.26,2.93-.09,3.39.22,1.91,1.3,1.07-.8,2.49-2.15,8.15-1.62,8.38-8.91,5.51-15.07-3.04-6.53-5.9-11.39-9.33-17.95-.4-.8-.71-2.4-.37-4.02.85-2.62,1.34-5.44,2.64-7.82,1.78-3.24,4.19-6.13,6.32-9.17l.28-2.94c1.47-5.15,6.09-6.04,10.46-7.49-3.99-1.35-7.74-.78-9.13-5.54-.21-1.69.02-1.29.45-3.24.11-.01,1.04-2.57,1.95-2.67,1.71,13.49,10.36-2.28,11.94-6.04.4-.71.8-1.43,1.2-2.14,8.25-1.99,10.79-7.21,19.98-6.34.34-2.62.66-5.04.97-7.46,1.01.95,2.02,1.9,3.21,3.01,1.54-4.08,4.31,1.3,6.18-1.01-1.18-4.92-.76-9.61,2.23-14,1.15.4,2.26.59,3.88,1.95,1.88,1.46,1.8,2.27,2.3,3.1,1.64,3.69,3.29,7.38,4.48,10.05h8.6c.31.31.62.61.93.92,1.17,2.87,3.18,4.91,6.04,6.11.63.63,1.27,1.26,1.9,1.89,8.69,6.27,9.84,8.21,13.07,18.04.07.48-.02,1.1.24,1.42,3.63,4.49,7.3,8.95,10.97,13.41,1.57,1.76,11.81,10.89,6.81,13.15-2.9-1.19-.2-4.05-4.04-1.89-1.31.73-.13,7.32,3.08,3.85.71,1.29,1.42,2.57,2.13,3.86-1.39,2.72-1.41,3.25-.08,5.96q.6,2.88-.13,3.88c-3.37,3.02-3.51,3.03-7.66,1.27.11,12.37-13.97-3.97-14.23-3.96-1.71-.39-3.42-.75-5.12-1.18-2.3-.57-4.58-1.2-6.87-1.8l-4.86-4.24c-.65-1.48-1.29-2.96-2.06-4.71-11.15-.95-13.84-10.23-17.03-19.33-.16-.94-.7-2.01-.41-2.77.55-1.45,1.58-2.71,2.4-4.06,5.61,3.01,5.31,6.99,8.66,11.4,3.74,4.91,7.31,4.23,12.72,6.22,5.17,1.91,14.58,13.65,19.84,2.74,8.15-16.91-45.79-20.06-26.25-38.32v-1c-2.71-4.78-4.19-5.01-10.04-4.87-2.7.06-7.73-.34-8.92,2.87-8.46.98-16.18,2.26-23.95,5.99-9.9.84-7.43,8.26-6.99,15.97-.67,1.33-1.33,2.66-2,3.99-5.27,2.15-8.75,2.71-11.73,6.97-2.92,4.16.84,5.66-5.23,7-1.29,3.81-2.24,7.58,1,10.98,3.9,11.24,8.54,18.81,5.99,30.94-2.9,3.41-4.09,7.39-4.21,11.84-.05,1.82.36,2.87,2.21,3.13,15.43,10.79-14.86,18.51-20.96,23.95-4.32.33-8.65.67-12.97,1-9.03,2.01-17.04,5.16-24.95,9.98-.67.67-1.33,1.33-2,2-5.69,3.05-15.51,12.12-16.5,19.19-.68,4.88,3.14,7.54,3.09,12.4-.04,3.52-5.55,5.96-.56,9.33.33,1.33.67,2.66,1,3.99,8.07,11.9,28.21,8.01,32.17,22.82,3.48,13.04-13.54,30.46,8.75,30.07,3.89-.34,9.74-1.05,4.99-4.99-1.95-2.88-4.55-6.34-4.45-10.06.16-5.91.78-3.03,3.98-6.91,4.56-5.51,2.73.44,2.58-6.85-.1-4.78-2.81-7.63,2.88-11.11h2c1.5.51,3,1.02,5.23,1.77.42-5.41-.08-10.07-3.23-14.75-2-3.33-3.99-6.65-5.99-9.98-1.78-2.99-9.76-12.28-8.68-15.83,1.22-4.03,7.19-4.72,10.68-6.12,5.01-2.92,6.53-2.77,9.98,1,.25,1.61.81,3.25.7,4.84-.47,6.89-.29,7.29,6.29,10.13,1.33.33,2.66.67,3.99,1,5.09,2.52,10.1,5.21,15.3,7.47,2.26.98,4.9,1.08,6.65-1.49,6.24-1.71,3.88-7.69,7.03-11.45,5.44-6.49,14.14-.76,20.91-3.52,2.19-1.08,4.62-1.84,6.49-3.32,1.72-1.35,2.3-3.4-.51-4.67-.3-8.42,2.01-17.53,12.12-18.61,9.39-1,15.35,6.77,25.8,2.64,2.38.44,4.77.88,7.57,1.39.45-1.07.93-2.23,1.41-3.39,2-.67,3.99-1.33,5.99-2,9.58-1.09,12.36-.23,20.8,2.08-3.51-7.98-14.74-5.07-21.8-5.07h-3.99c-1.93-3.79,1.59-5.55,3.03-8.09,7.28,1.38,16.82-2.3,23.35,1.84,6.27,3.97,6.19,12.82,7.44,19.27,1.71,2.77,1.26,5.82,1.15,8.83.26,4.69.52,9.38.79,14.07.98,3.39-2.06,3.79-3.82,5.14-.48-.01-1.06-.2-1.43,0-4.83,2.59-9.62,5.24-14.43,7.88-3.71-3.7-7.41-7.41-11.12-11.11,2.18-2.1,4.35-4.19,6.47-6.23,5.84,4.86,9.29-5.6,10.39-10.65-.34-2-.68-3.99-1.01-5.99.9-3.46-7.66-8.37-10.7-8.38-3.97,0-11.67,5.21-15.09,7.57-2,.98-3.99,1.97-5.99,2.95-3.32,1.01-4.34.56-8.43,1.11-3.15.36-1.26-.24-4.7.76m-173.5,23.93c-1.56,1.44-2.95,3.13-4.71,4.27-2.18,1.41-3.24,3.2-3.27,5.71-1.31,2.55-4.96,4.21-2.99,7.98,1.33,2.33,2.66,4.66,3.99,6.99,1.06,6.08,1.22,12.9,5.39,17.78,3.33,3.89,6.95,7.19,10.36,11.19,3.87,4.55,8.49,6.42,9.32,12.75.57,4.4-6.53,14.12-3.64,17.88,3.2,4.17,11.85-5.32,13.57-7.45,3.63-4.5,4.46-8.38,3.21-14.19-2.85-13.27-14.64-19.01-24.24-26.98-1.36-5.69-9.41-9.27-12.06-15.47-.93-2.17-3.02-2.13-2.57-4.8.6-3.51,7.75-10.17,9.63-13.66,3.14-1.68,6.28-3.36,9.27-4.97-1.11-6.94-9.08,1.37-11.27,2.97ZM196.08,38.86c-1.76-5.96-4.22-7.38-11.35-6.52,4.99,9.54,6.11,10.19,11.35,6.52Zm2.62,37.38c4.58,1.75,8.7,3.32,13.62,5.19-3.73-7.57-7.75-9.06-13.62-5.19Zm-31.14-60.2c.99-5.31-.89-8.93-4.84-9.86-.81,5.16-.43,5.96,4.84,9.86Zm80.47,157.8c-1.65,2.41-3.65,4.77-1.71,8.22,3.71-2.25,2.68-5.26,1.71-8.22Z"/><path class="cls-4" d="m104.34,260.35c.74-2.29,1.48-4.58,2.22-6.88q-5.67-3.79-3.1-7.01c1.56.42,1.06.59,3.43.91,3.65,2.49,6.28,1.24,10.5,1.07,6.58-.27,12.17,1.63,16.92,6.14l-.11-.15c2.73,5,5.46,9.99,8.19,14.99-8.73,2.92-13.14-20.42-24.6-12.95-.16,6.64,6.85,3.24,9.26,7.17,1.91,3.12-1.89,14.95-6.77,11.75-.31-3.44.38-6.46,4.35-8.52-6.88-1.91-13.85-3.42-20.29-6.53Z"/><path d="m120.28,275.39c4.89,3.21,8.68-8.62,6.77-11.75-2.41-3.94-9.42-.53-9.26-7.17,11.47-7.47,15.87,15.87,24.6,12.95.63.98,1.26,1.96,1.89,2.94-1.34,7.37-2.57,8.46-8.07,12.9l.14.33c-10.23-1.57-18.99,1.24-16.07-10.21Zm11.88-7.72c-3.5,2.44-2.65,4.86-1.89,7.71,1.88-.1,3.55-.18,6.19-.32-1.66-2.85-2.83-4.86-4.3-7.39Z"/><path class="cls-3" d="m27.46,282.45c2.69-.61,3.35,2.03,4.98,3.12-1.83,1.43-3.66,2.87-5.87,4.6.32-2.77.61-5.24.89-7.71Z"/><path d="m222.14,139.62c-1.44,2.54-4.95,4.29-3.03,8.09-5.39-2.16-12.67-3.12-12.77-9.86-.07-4.42,5.04-11.01,8.72-13.16,3.73-2.18,6.97-2.74,11.06-5.56,4.69-3.23,10.48-5.35,15.64-7.77-11.17-8.98-20.16,7.83-31.13,9.32-9.05,1.22-15.76-6.21-20.47-12.89-1.1-3.87-.91-8.5-5.99-9.98-4.02-8.67-8.9-16.61-17.96-20.96-2-3.33-3.99-6.65-5.99-9.98-4.6-6.8-4.26-20.75,5.99-21.96-.83,1.34-1.85,2.61-2.4,4.06-.29.76.24,1.84.41,2.77-5.32,11.53,10.32,20.34,17.89,25.24,1.67,2.64,3.35,5.28,5.02,7.92,0,0-.02-.03-.02-.03,2.01,3.39,4.03,6.77,6.04,10.16,1.28,2.16.11,5.39,2.97,6.86.29.65.58,1.3.88,1.95,1.45,4.26,3.28,8.23,6.87,9.42,7.05-1.89,13.32-3.32,19.07-7.97,6.4-5.18,12.3-10.65,21.13-2.69.95,1.08,1.91,2.16,2.86,3.24,5.89,5.84,11.85,11.59,19.62,14.98.93.41,1.62,1.37,2.42,2.07,0,.3.07.59.21.86l5.79,8.1c-.19,3.54-.26,7.08-.61,10.6-.14,1.41-.91,2.75-1.4,4.12-.59,2.37-1.19,4.74-1.78,7.12-.33,2.66-.66,5.32-.98,7.98q-1.55,3.48-5.16,1.15c-.26-.15-.55-.22-.85-.21-4.63-6.26-13.79-11.52-10.22-19.3,2.97-6.47,6.55-2.32,4.19-9.1-.9-2.59-5.8-6.88-8.25-8.6-5.28-3.69-11.07-5.41-16.22-2.22-2.9,1.8-5.35,6.12-8.23,8.24-3.7,2.72-8.18,4.35-12.23,6.43,2.99.41,5.97.92,8.93,1.55Zm41.89,1.32c-.22,2.49-.5,4.09-.43,5.66.03.53.97,1.02,1.49,1.52,1.69-2.91.36-4.09-1.07-7.19Z"/><path class="cls-1" d="m134.27,251.12c-1.19-1.59-2.68-2.96-4.05-4.42.35-1.67.7-3.34,1.05-5.01l1.01-.33c2.98,1.1,5.95,2.2,8.93,3.3.4.62.8,1.24,1.2,1.86.62,1.57,1.13,3.19,1.88,4.69.88,1.76,1.96,3.41,2.96,5.1,2.32,3.36,4.63,6.71,6.95,10.07-2.32.75-4.64,1.51-6.95,2.26-5.83-3.69-4.95-10.32-10.49-14.64"/><path class="cls-1" d="m131.27,241.68c-.35,1.67-.7,3.34-1.05,5.01-8.34-1-24.98-3.01-24.89-2.99-2.6-.61-5.2-1.22-8.45-1.97.98-1.53,1.81-2.83,2.65-4.13,3.06-3.98,4.37-6.82,7.57-10.69.31.26,3.9,1.88,4.21,2.14-1.01,1.88-2.02,3.77-3.27,6.1,8,3.88,15,4.05,23.24,6.54Z"/><path d="m224.07,185.54c3.71,3.7,7.41,7.41,11.12,11.11-3.03,1.7-6.05,3.41-9.08,5.11-.34,0-.68,0-1.03,0-3.32.33-6.64.66-9.97.99-.34,0-.68.01-1.01.02-3.4-1.75-4.04-3.45-1.76-5.83,3.77-3.93,7.8-7.62,11.73-11.4Z"/><path class="cls-4" d="m148.21,284.32c-3.85,2.11-7.98.84-11.99.95,5.51-4.45,6.74-5.53,8.07-12.9.3.09.61.16.92.21,1.06,3.29,2.12,6.58,3.17,9.86-.06.63-.12,1.25-.18,1.88Z"/><path class="cls-2" d="m254.87,183.63c-.26-4.69-.52-9.38-.79-14.07.26,4.69.52,9.38.79,14.07Z"/><path d="m166.22,44.91c-10.25,1.21-10.58,15.16-5.99,21.96,1.27,3.76,2.43,7.59,5.99,9.98,9.06,4.35,13.94,12.29,17.96,20.96,2.27,3.16,2.25,7.7,5.99,9.98,4.71,6.68,11.42,14.11,20.47,12.89,10.97-1.48,19.96-18.3,31.13-9.32-5.16,2.42-10.94,4.54-15.64,7.77-4.09,2.82-7.33,3.38-11.06,5.56-3.69,2.15-8.79,8.74-8.72,13.16.1,6.73,7.38,7.7,12.77,9.86-.24.68-.29,1.72-.75,1.97-2.69,1.44-5.47,2.7-8.23,4.01-.33.33-.67.67-1,1-10.45,4.12-16.41-3.65-25.8-2.64-10.12,1.08-12.43,10.19-12.12,18.61-2,2.66-3.99,5.32-5.99,7.98-6.77,2.76-15.47-2.96-20.91,3.52-3.15,3.76-.79,9.73-7.03,11.45-4.02,1.73-7.13-.93-10.55-2.15-3.78-1.35-7.6-2.57-11.4-3.84-1.33-.33-2.66-.67-3.99-1-1.42-2.77-4.82-14.56-6.99-14.97-3.45-3.76-4.97-3.92-9.98-1-18.06,2.18-10.25,11.24-2,21.96,2,3.33,3.99,6.65,5.99,9.98.56,3.78,1.13,7.56,1.7,11.45-1.01.42-2.36.97-3.7,1.53h-2c-8.04.1-5.95,11.05-3.11,15.39-11.58,4.11-6.94,11.94-4.17,22.01-23.63,4.4-2.98-20.54-10.33-32.94-1.92-3.24-8.21-7.08-11.6-8.52-6.83-2.9-14.66-6.49-21.68-8.92-.33-1.33-.67-2.66-1-3.99.49-3.3,2.66-6.53,2.71-9.63.06-3.56-3.05-5.77-3.17-8.95-.26-6.89,10.13-16.66,14.43-22.33.67-.67,1.33-1.33,2-2,5.94-1.92,12.3-5.37,18.19-6.81,6.63-1.61,13-.69,19.73-3.17,7.14-3.13,28.67-8.96,27.84-19.49-.41-5.24-5.81-6.42-5.34-12.1.36-4.34,3.27-10.15,3.79-15.13,1.14-11-11.36-20.43-8.39-31.94.46-1.77,3.94-4.48,4.8-6.09.87-1.63-.55-4.08.72-5.69,2.52-3.2,8.38-.05,9.52-5.37.67-1.33,1.33-2.66,2-3.99,2.27-.82,2.28-2.78,1.78-4.48-1.62-5.43.24-9.12,5.21-11.49,7.77-3.72,15.49-5,23.95-5.99,4.55-.12,9.11-.08,13.63-.44,2.23-.18,3.34.82,4.33,2.44.33.33.67.67,1,1-19.54,18.27,34.41,21.42,26.25,38.32-5.26,10.91-14.67-.84-19.84-2.74-5.41-1.99-8.98-1.31-12.72-6.22-3.36-4.41-3.05-8.38-8.66-11.4Z"/><path d="m28.49,226.55c9.6,7.98,21.39,13.71,24.24,26.98,1.25,5.81.42,9.69-3.21,14.19-1.72,2.13-10.38,11.62-13.57,7.45-2.88-3.76,4.22-13.48,3.64-17.88-.82-6.33-5.45-8.2-9.32-12.75-3.41-4-7.02-7.3-10.36-11.19-4.17-4.87-4.33-11.7-5.39-17.78.3-.81.6-1.61,1.34-3.57,3.28,6.84,6.47,10.07,12.64,14.54Z"/><path d="m43.46,202.6c7.02,2.43,14.84,6.01,21.68,8.92,3.39,1.44,9.68,5.28,11.6,8.52,7.35,12.4-13.3,37.34,10.33,32.94-2.76-10.07-7.4-17.9,4.17-22.01-2.84-4.34-4.93-15.29,3.11-15.39-5.68,3.48-2.98,6.33-2.88,11.11.15,7.29,1.98,1.34-2.58,6.85-3.21,3.87-3.82,1-3.98,6.91-.1,3.73,2.5,7.18,4.45,10.06.97,2.05.54,3.39-1.84,3.92-1.08.24-2.1.71-3.15,1.07-22.29.39-5.27-17.03-8.75-30.07-3.96-14.81-24.1-10.92-32.17-22.82Z"/><path d="m129.29,49.9c-1.14,5.32-7,2.17-9.52,5.37-1.27,1.61.16,4.05-.72,5.69-.86,1.61-4.35,4.33-4.8,6.09-2.98,11.51,9.52,20.94,8.39,31.94-.52,4.99-3.43,10.79-3.79,15.13-.47,5.68,4.93,6.86,5.34,12.1.82,10.52-20.7,16.36-27.84,19.49v-1c6.1-5.45,36.39-13.16,20.96-23.95-1.29-3.17-1.92-6.55.55-9.2,1.76-1.88,1.68-3.68,1.44-5.77,2.55-12.13-2.09-19.7-5.99-30.94-.33-3.66-.67-7.32-1-10.98,6.08-1.34,2.32-2.84,5.23-7,2.99-4.26,6.46-4.82,11.73-6.97Z"/><path d="m28.49,226.55c-6.17-4.48-9.35-7.71-12.64-14.54-.73,1.95-1.03,2.76-1.34,3.57-1.33-2.33-2.66-4.66-3.99-6.99,2.04-2.61,4.08-5.21,6.62-8.45-1.63.21-2.63.34-3.62.46.03-2.51,1.1-4.3,3.27-5.71,1.75-1.14,3.15-2.83,4.71-4.27l2,2c-1.89,3.49-9.04,10.15-9.63,13.66-.45,2.67,1.64,2.64,2.57,4.8,2.65,6.2,10.69,9.77,12.06,15.47Z"/><path d="m56.44,157.69c-4.3,5.68-14.7,15.45-14.43,22.33.12,3.18,3.23,5.39,3.17,8.95-.05,3.1-2.22,6.33-2.71,9.63-4.99-3.37.52-5.81.56-9.33.05-4.86-3.77-7.52-3.09-12.4.99-7.07,10.82-16.14,16.5-19.19Z"/><path d="m96.36,145.71c-6.73,2.49-13.11,1.56-19.73,3.17-5.89,1.43-12.25,4.89-18.19,6.81,7.91-4.82,15.92-7.97,24.95-9.98,2.05.24,4.11.66,6.16.66,2.27,0,4.54-.42,6.82-.66Z"/><path d="m223.1,147.71c7.06,0,18.29-2.9,21.8,5.07-8.44-2.31-11.22-3.17-20.8-2.08.57-.5,1.15-1,1.74-1.51-1.03-.56-1.88-1.02-2.73-1.49Z"/><path d="m92.36,192.62c-8.25-10.71-16.07-19.77,2-21.96-3.49,1.4-9.46,2.1-10.68,6.12-1.07,3.55,6.9,12.84,8.68,15.83Z"/><path d="m23.5,192.62l-2-2c2.19-1.6,10.15-9.91,11.27-2.97-2.99,1.6-6.13,3.28-9.27,4.97Z"/><path d="m180.19,25.95c-.99-1.62-2.1-2.62-4.33-2.44-4.53.36-9.09.32-13.63.44,1.19-3.21,6.22-2.81,8.92-2.87,5.86-.14,7.33.08,10.04,4.87h-1Z"/><path d="m115.32,187.63c3.8,1.27,7.62,2.49,11.4,3.84,3.43,1.22,6.53,3.88,10.55,2.15-1.75,2.57-4.4,2.47-6.65,1.49-5.2-2.26-10.21-4.96-15.3-7.47Z"/><path d="m138.27,29.94c-4.97,2.36-6.83,6.05-5.21,11.49.51,1.71.5,3.66-1.78,4.48-.45-7.71-2.91-15.13,6.99-15.97Z"/><path d="m104.34,171.66c2.16.41,5.57,12.2,6.99,14.97-6.57-2.84-6.76-3.25-6.29-10.13.11-1.59-.45-3.22-.7-4.84Z"/><path d="m223.1,147.71c.85.46,1.71.93,2.73,1.49-.59.51-1.16,1.01-1.74,1.51-2,.67-3.99,1.33-5.99,2-2.66.33-5.32.67-7.98,1,2.75-1.32,5.54-2.57,8.23-4.01.47-.25.51-1.3.75-1.97h3.99Z"/><path d="m96.36,215.57c1.34-.55,2.69-1.11,3.7-1.53-.58-3.89-1.14-7.67-1.7-11.45,3.15,4.67,3.66,9.33,3.23,14.75-2.23-.76-3.73-1.26-5.23-1.77Z"/><path d="m248.03,173.84c.97,2.96,2,5.97-1.71,8.22-1.95-3.46.06-5.81,1.71-8.22Z"/><path d="m13.52,200.6c.99-.13,1.99-.25,3.62-.46-2.53,3.23-4.57,5.84-6.62,8.45-1.97-3.77,1.69-5.44,2.99-7.98Z"/><path d="m165.22,178.65l5.99-7.98c2.81,1.27,2.22,3.32.51,4.67-1.87,1.47-4.31,2.24-6.49,3.32Z"/><path d="m119.31,105.79c.23,2.1.32,3.89-1.44,5.77-2.47,2.65-1.84,6.03-.55,9.2-1.85-.26-2.26-1.31-2.21-3.13.12-4.45,1.31-8.43,4.21-11.84Z"/><path d="m210.13,153.7c2.66-.33,5.32-.67,7.98-1-.48,1.16-.97,2.31-1.41,3.39-2.8-.52-5.19-.95-7.57-1.39.33-.33.67-.67,1-1Z"/><path d="m112.32,63.88c.33,3.66.67,7.32,1,10.98-3.24-3.4-2.29-7.17-1-10.98Z"/><path d="m96.36,145.71c-2.27.24-4.54.65-6.82.66-2.05,0-4.11-.42-6.16-.66,4.32-.33,8.65-.67,12.97-1v1Z"/><path d="m84.38,255.49c1.05-.36,2.08-.83,3.15-1.07,2.37-.53,2.81-1.87,1.84-3.92,4.75,3.94-1.1,4.65-4.99,4.99Z"/><path d="m180.19,25.95h1v1c-.33-.33-.67-.67-1-1Z"/><path d="m132.17,267.67c1.47,2.53,2.64,4.54,4.3,7.39-2.64.14-4.31.22-6.19.32-.76-2.86-1.61-5.28,1.89-7.71Z"/><path d="m190.17,107.79c-3.73-2.28-3.72-6.82-5.99-9.98,5.08,1.48,4.89,6.11,5.99,9.98Z"/><path d="m166.22,76.85c-3.56-2.39-4.71-6.22-5.99-9.98,2,3.33,3.99,6.65,5.99,9.98Z"/><path d="m264.03,140.94c1.43,3.09,2.76,4.27,1.07,7.19-.52-.51-1.47-.99-1.49-1.52-.08-1.57.2-3.17.43-5.66Z"/></svg>